<svg id="visual" viewBox="0 0 900 600" 
    xmlns="http://www.w3.org/2000/svg"
    xmlns:xlink="http://www.w3.org/1999/xlink" version="1.1">
    <path d="M0 407L21.5 400.8C43 394.7 86 382.3 128.8 385.2C171.7 388 214.3 406 257.2 404.5C300 403 343 382 385.8 379.2C428.7 376.3 471.3 391.7 514.2 390.5C557 389.3 600 371.7 642.8 375.3C685.7 379 728.3 404 771.2 405.8C814 407.7 857 386.3 878.5 375.7L900 365L900 601L878.5 601C857 601 814 601 771.2 601C728.3 601 685.7 601 642.8 601C600 601 557 601 514.2 601C471.3 601 428.7 601 385.8 601C343 601 300 601 257.2 601C214.3 601 171.7 601 128.8 601C86 601 43 601 21.5 601L0 601Z" fill="#3bacff"></path>
    <path d="M0 479L21.5 477.2C43 475.3 86 471.7 128.8 466.7C171.7 461.7 214.3 455.3 257.2 446C300 436.7 343 424.3 385.8 429.3C428.7 434.3 471.3 456.7 514.2 458.8C557 461 600 443 642.8 432.2C685.7 421.3 728.3 417.7 771.2 419.2C814 420.7 857 427.3 878.5 430.7L900 434L900 601L878.5 601C857 601 814 601 771.2 601C728.3 601 685.7 601 642.8 601C600 601 557 601 514.2 601C471.3 601 428.7 601 385.8 601C343 601 300 601 257.2 601C214.3 601 171.7 601 128.8 601C86 601 43 601 21.5 601L0 601Z" fill="#00c4ff"></path>
    <path d="M0 480L21.5 483.5C43 487 86 494 128.8 492C171.7 490 214.3 479 257.2 478.2C300 477.3 343 486.7 385.8 488.3C428.7 490 471.3 484 514.2 484.5C557 485 600 492 642.8 493C685.7 494 728.3 489 771.2 485.2C814 481.3 857 478.7 878.5 477.3L900 476L900 601L878.5 601C857 601 814 601 771.2 601C728.3 601 685.7 601 642.8 601C600 601 557 601 514.2 601C471.3 601 428.7 601 385.8 601C343 601 300 601 257.2 601C214.3 601 171.7 601 128.8 601C86 601 43 601 21.5 601L0 601Z" fill="#00d9ff"></path>
    <path d="M0 506L21.5 511.7C43 517.3 86 528.7 128.8 527.2C171.7 525.7 214.3 511.3 257.2 506C300 500.7 343 504.3 385.8 510.7C428.7 517 471.3 526 514.2 528.5C557 531 600 527 642.8 521.2C685.7 515.3 728.3 507.7 771.2 505.2C814 502.7 857 505.3 878.5 506.7L900 508L900 601L878.5 601C857 601 814 601 771.2 601C728.3 601 685.7 601 642.8 601C600 601 557 601 514.2 601C471.3 601 428.7 601 385.8 601C343 601 300 601 257.2 601C214.3 601 171.7 601 128.8 601C86 601 43 601 21.5 601L0 601Z" fill="#1cedfc"></path>
    <path d="M0 532L21.5 534.2C43 536.3 86 540.7 128.8 540C171.7 539.3 214.3 533.7 257.2 530.2C300 526.7 343 525.3 385.8 527.7C428.7 530 471.3 536 514.2 539.5C557 543 600 544 642.8 541.3C685.7 538.7 728.3 532.3 771.2 532.7C814 533 857 540 878.5 543.5L900 547L900 601L878.5 601C857 601 814 601 771.2 601C728.3 601 685.7 601 642.8 601C600 601 557 601 514.2 601C471.3 601 428.7 601 385.8 601C343 601 300 601 257.2 601C214.3 601 171.7 601 128.8 601C86 601 43 601 21.5 601L0 601Z" fill="#51fff4"></path>
</svg>